<?xml version="1.0" standalone="no"?><!DOCTYPE svg PUBLIC "-//W3C//DTD SVG 1.1//EN" "http://www.w3.org/Graphics/SVG/1.1/DTD/svg11.dtd"><svg t="1574596405164" class="icon" viewBox="0 0 1024 1024" version="1.1" xmlns="http://www.w3.org/2000/svg" p-id="37764" xmlns:xlink="http://www.w3.org/1999/xlink" width="200" height="200"><defs><style type="text/css"></style></defs><path d="M512 256c-53.12 0-96-42.88-96-96S458.88 64 512 64s96 42.88 96 96S565.12 256 512 256z m448 384c0 71.04-56.96 128-128 128h-64c-71.04 0-128-56.96-128-128l128-256h-64c-35.2 0-64-28.8-64-64H576v512c26.88 0 64 28.8 64 64h64c26.88 0 64 28.8 64 64H256c0-35.2 37.12-64 64-64h64c0-35.2 37.12-64 64-64h1.92L448 320H384c0 35.2-28.8 64-64 64H256l128 256c0 71.04-56.96 128-128 128H192c-71.04 0-128-56.96-128-128l128-256H128V320h192c0-35.2 28.8-64 64-64h256c35.2 0 64 28.8 64 64h192v64h-64l128 256zM224 448L128 640h192L224 448zM896 640l-96-192-96 192h192z" fill="#000000" p-id="37765"></path></svg>