<?xml version="1.0" standalone="no"?><!DOCTYPE svg PUBLIC "-//W3C//DTD SVG 1.1//EN" "http://www.w3.org/Graphics/SVG/1.1/DTD/svg11.dtd"><svg t="1574590006904" class="icon" viewBox="0 0 1024 1024" version="1.1" xmlns="http://www.w3.org/2000/svg" p-id="14459" xmlns:xlink="http://www.w3.org/1999/xlink" width="200" height="200"><defs><style type="text/css"></style></defs><path d="M857.165 0h-691.41C74.213 0 0 74.455 0 166.3v690.549c0 91.845 74.213 166.3 165.755 166.3h691.41c91.543 0 165.755-74.455 165.755-166.3V166.301C1022.921 74.455 948.71 0 857.165 0z" fill="#A473CF" p-id="14460"></path><path d="M190.038 328.93c18.714 9.867 278.665 151.582 288.362 156.685s19.564 7.486 34.876 7.486c15.311 0 25.179-2.382 34.876-7.486S817.8 338.797 836.514 328.93c6.975-3.573 18.714-10.037 21.266-17.353 4.423-12.93-0.34-17.863-19.224-17.863H187.997c-18.884 0-23.647 5.104-19.224 17.863 2.552 7.486 14.291 13.78 21.266 17.353z m661.277 7.656c-13.95 7.145-139.162 96.291-222.013 149.88l139.843 157.366c3.403 3.403 4.934 7.486 3.062 9.527-2.042 1.871-6.465 0.851-10.037-2.382L594.427 509.433c-25.349 16.332-43.212 27.56-46.274 29.262-13.1 6.635-22.286 7.486-34.876 7.486s-21.776-0.851-34.876-7.486c-3.232-1.701-20.925-12.93-46.274-29.262L264.384 650.977c-3.403 3.403-7.996 4.423-10.037 2.382-2.042-1.871-0.51-6.125 2.892-9.527l139.673-157.366c-82.851-53.589-209.424-142.735-223.374-149.88-14.971-7.656-15.822 1.361-15.822 8.336v348.757c0 15.822 23.307 35.556 39.979 35.556h631.164c16.672 0 36.577-19.905 36.577-35.556V344.922c0-7.145 1.021-15.992-14.12-8.336z" fill="#FFFFFF" p-id="14461"></path></svg>