<?xml version="1.0" standalone="no"?><!DOCTYPE svg PUBLIC "-//W3C//DTD SVG 1.1//EN" "http://www.w3.org/Graphics/SVG/1.1/DTD/svg11.dtd"><svg t="1574590339445" class="icon" viewBox="0 0 1024 1024" version="1.1" xmlns="http://www.w3.org/2000/svg" p-id="24849" xmlns:xlink="http://www.w3.org/1999/xlink" width="200" height="200"><defs><style type="text/css"></style></defs><path d="M512 0a512 512 0 1 0 512 512A512 512 0 0 0 512 0z m0 816.213333a55.04 55.04 0 1 1 55.04-54.613333A54.613333 54.613333 0 0 1 512 816.213333z m101.12-288.426666c-31.573333 31.573333-64.426667 64.426667-64.426667 93.866666V640a36.693333 36.693333 0 1 1-73.386666 0v-19.2c0-59.733333 45.653333-105.386667 85.333333-145.493333 29.44-29.866667 60.16-60.16 60.16-85.333334A110.08 110.08 0 0 0 512 280.746667a107.946667 107.946667 0 0 0-109.653333 108.373333 36.693333 36.693333 0 0 1-73.386667 0 183.04 183.04 0 0 1 366.08 2.133333c0 55.04-41.813333 96.426667-81.92 136.533334z" p-id="24850" fill="#707070"></path></svg>